<svg width="44" height="44" viewBox="0 0 44 44" fill="none" xmlns="http://www.w3.org/2000/svg">
  <rect width="44" height="44" fill="transparent"/>
  <path id="svgPath" d="M16.0886 16.2157L16.1464 16.1464C16.32 15.9729 16.5894 15.9536 16.7843 16.0886L16.8536 16.1464L22 21.293L27.1464 16.1464C27.32 15.9729 27.5894 15.9536 27.7843 16.0886L27.8536 16.1464C28.0271 16.32 28.0464 16.5894 27.9114 16.7843L27.8536 16.8536L22.707 22L27.8536 27.1464C28.0271 27.32 28.0464 27.5894 27.9114 27.7843L27.8536 27.8536C27.68 28.0271 27.4106 28.0464 27.2157 27.9114L27.1464 27.8536L22 22.707L16.8536 27.8536C16.68 28.0271 16.4106 28.0464 16.2157 27.9114L16.1464 27.8536C15.9729 27.68 15.9536 27.4106 16.0886 27.2157L16.1464 27.1464L21.293 22L16.1464 16.8536C15.9729 16.68 15.9536 16.4106 16.0886 16.2157L16.1464 16.1464L16.0886 16.2157Z" fill="#242424"/>
</svg>
